Coordinates
version=1
nRows=19
nColumns=18
inDegrees=yes

Units are S.I. units (second, meters, Newtons, ...)
If the header above contains a line with 'inDegrees', this indicates whether rotational values are in degrees (yes) or radians (no).

endheader
time	ground_thorax_rot_x	ground_thorax_rot_y	ground_thorax_rot_z	ground_thorax_tx	ground_thorax_ty	ground_thorax_tz	clav_prot	clav_elev	scapula_abduction	scapula_elevation	scapula_upward_rot	scapula_winging	plane_elv	shoulder_elv	axial_rot	elbow_flexion	pro_sup
      0.00000000	      3.48930231	     -0.91522687	     -8.00980192	     -0.00470000	      0.00459969	      0.00017820	    -28.33869111	     -6.92426021	    -22.60315998	     -5.99730456	     11.37826270	      6.51457687	    -20.99596153	     19.55572702	     22.87433209	      0.00000000	     34.32000000
      0.01000000	      3.48872636	     -0.91520668	     -8.01007983	     -0.00474507	      0.00459224	      0.00024152	    -28.33876554	     -6.92410014	    -22.60309797	     -5.99729058	     11.37866000	      6.51440944	    -20.99594729	     19.55630792	     22.87437443	      0.00000000	     34.32000000
      0.02000000	      3.47534316	     -0.91377381	     -8.01184461	     -0.00476867	      0.00458461	      0.00024053	    -28.33987614	     -6.92075260	    -22.59867494	     -5.99810347	     11.39123659	      6.50995393	    -20.99361447	     19.57108227	     22.87554748	      0.00000000	     34.32000000
      0.03000000	      3.47406686	     -0.91384839	     -8.01249985	     -0.00480769	      0.00464752	      0.00029354	    -28.33999233	     -6.92022994	    -22.59861083	     -5.99788272	     11.39190405	      6.50956412	    -20.99356916	     19.57195377	     22.87560473	      0.00000000	     34.32000000
      0.04000000	      3.45236834	     -0.92468600	     -8.02504760	     -0.00483992	      0.00457235	      0.00028747	    -28.34404884	     -6.90814224	    -22.59861433	     -5.99329704	     11.40888084	      6.50003380	    -20.99537577	     19.59939083	     22.87736663	      0.00000000	     34.32000000
      0.05000000	      3.45254444	     -0.92553992	     -8.02596439	     -0.00496008	      0.00452560	      0.00036342	    -28.34414995	     -6.90779969	    -22.59886056	     -5.99303891	     11.40888075	      6.49987661	    -20.99576748	     19.60027165	     22.87740678	      0.00000000	     34.32000000
      0.06000000	      3.57636601	     -0.95675580	     -8.05064943	     -0.00488693	      0.00456625	      0.00047601	    -28.30092758	     -6.89720441	    -22.51653420	     -5.98775653	     11.43107866	      6.49563026	    -21.07102644	     19.75428137	     22.88260444	      0.00000000	     34.32000000
      0.07000000	      3.57658200	     -0.95663179	     -8.05074348	     -0.00487098	      0.00453071	      0.00051241	    -28.30074931	     -6.89714265	    -22.51636061	     -5.98764423	     11.43088078	      6.49567184	    -21.07125681	     19.75440476	     22.88259708	      0.00000000	     34.32000000
      0.08000000	      3.58487212	     -0.94912608	     -8.08132818	     -0.00472022	      0.00452266	      0.00051249	    -28.28683550	     -6.88005884	    -22.50876728	     -5.96788971	     11.40974873	      6.49506861	    -21.08897495	     19.76241211	     22.88283515	      0.00000000	     34.32000000
      0.09000000	      3.58454652	     -0.94858121	     -8.08151676	     -0.00465003	      0.00458899	      0.00046606	    -28.28658949	     -6.87977084	    -22.50849781	     -5.96761366	     11.40961098	      6.49500942	    -21.08904231	     19.76233639	     22.88283972	      0.00000000	     34.32000000
      0.10000000	      3.57550535	     -0.92699048	     -8.12330712	     -0.00455051	      0.00451695	      0.00035389	    -28.27117301	     -6.85510875	    -22.50179598	     -5.94108909	     11.38544765	      6.49211874	    -21.10571185	     19.77379303	     22.88556848	      0.00000000	     34.32000000
      0.11000000	      3.57623355	     -0.92734804	     -8.12384582	     -0.00456943	      0.00451671	      0.00025991	    -28.27100565	     -6.85493933	    -22.50201750	     -5.94072747	     11.38462009	      6.49226111	    -21.10607536	     19.77358272	     22.88560088	      0.00000000	     34.32000000
      0.12000000	      3.58248650	     -0.93991952	     -8.17398730	     -0.00450046	      0.00448176	      0.00020633	    -28.26239326	     -6.83129755	    -22.51430278	     -5.91174413	     11.34644854	      6.49223698	    -21.12877467	     19.78544182	     22.89044928	      0.00000000	     34.32000000
      0.13000000	      3.57831026	     -0.95813743	     -8.21401887	     -0.00450803	      0.00449273	      0.00011972	    -28.25511818	     -6.80889499	    -22.52704739	     -5.88450940	     11.31094465	      6.49198152	    -21.14978462	     19.79347666	     22.89581759	      0.00000000	     34.32000000
      0.14000000	      3.58708306	     -0.97904998	     -8.24682003	     -0.00449607	      0.00450754	      0.00005852	    -28.24357759	     -6.79215977	    -22.53965201	     -5.85747460	     11.26068119	      6.49801656	    -21.17305612	     19.78402804	     22.90107500	      0.00000000	     34.32000000
      0.15000000	      3.48874823	     -0.92374369	     -8.24741324	     -0.00456404	      0.00437467	     -0.00016857	    -28.16627434	     -6.79048456	    -22.49613606	     -5.81048728	     11.10805128	      6.54228517	    -21.24069149	     19.75689116	     22.95631133	      0.00000000	     34.32000000
      0.16000000	      3.51469445	     -0.92348324	     -8.24967715	     -0.00446148	      0.00435124	     -0.00014028	    -28.15813110	     -6.80166516	    -22.49512171	     -5.81097669	     11.08000709	      6.55426957	    -21.25793649	     19.75956204	     22.96625797	      0.00000000	     34.32000000
      0.17000000	      3.28936225	     -0.90403424	     -8.18158816	     -0.00447567	      0.00456673	     -0.00031809	    -28.02199446	     -7.17867269	    -22.27018968	     -6.05191002	     10.92256703	      6.76509223	    -22.53796264	     19.98129050	     23.83076102	      0.00000000	     34.32000000
      0.18000000	      3.32155720	     -0.94103326	     -8.21895292	     -0.00450069	      0.00441116	     -0.00013647	    -28.02568010	     -7.16036800	    -22.29160391	     -6.03259655	     10.90237825	      6.76151397	    -22.55958294	     20.00592576	     23.83804672	      0.00000000	     34.32000000
